<svg width="23" height="23" viewBox="0 0 23 23" fill="none" xmlns="http://www.w3.org/2000/svg">
<g clip-path="url(#clip0_12_2)">
<path d="M12.1311 17.4487L22.7399 6.81054C23.0872 6.46199 23.0867 5.89768 22.7381 5.54972C22.3895 5.20203 21.8249 5.20292 21.4773 5.55152L11.4999 15.5565L1.52263 5.55116C1.17494 5.20261 0.610676 5.20171 0.262084 5.54936C0.0873383 5.72379 -3.54048e-05 5.95231 -3.54048e-05 6.18083C-3.54048e-05 6.40876 0.0867539 6.63638 0.260286 6.81049L10.8688 17.4487C11.0358 17.6166 11.2631 17.7108 11.4999 17.7108C11.7367 17.7108 11.9638 17.6163 12.1311 17.4487Z" fill="black"/>
</g>
<defs>
<clipPath id="clip0_12_2">
<rect width="23" height="23" fill="white" transform="translate(23) rotate(90)"/>
</clipPath>
</defs>
</svg>
