<svg width="219" height="51" viewBox="0 0 219 51" fill="none" xmlns="http://www.w3.org/2000/svg">
<path d="M62.104 10.776H58.072V8.4H69.052V10.776H65.02V21H62.104V10.776ZM74.0466 21.144C73.0266 21.144 72.1086 20.934 71.2926 20.514C70.4886 20.082 69.8586 19.488 69.4026 18.732C68.9466 17.976 68.7186 17.118 68.7186 16.158C68.7186 15.198 68.9466 14.34 69.4026 13.584C69.8586 12.828 70.4886 12.24 71.2926 11.82C72.1086 11.388 73.0266 11.172 74.0466 11.172C75.0666 11.172 75.9786 11.388 76.7826 11.82C77.5866 12.24 78.2166 12.828 78.6726 13.584C79.1286 14.34 79.3566 15.198 79.3566 16.158C79.3566 17.118 79.1286 17.976 78.6726 18.732C78.2166 19.488 77.5866 20.082 76.7826 20.514C75.9786 20.934 75.0666 21.144 74.0466 21.144ZM74.0466 18.84C74.7666 18.84 75.3546 18.6 75.8106 18.12C76.2786 17.628 76.5126 16.974 76.5126 16.158C76.5126 15.342 76.2786 14.694 75.8106 14.214C75.3546 13.722 74.7666 13.476 74.0466 13.476C73.3266 13.476 72.7326 13.722 72.2646 14.214C71.7966 14.694 71.5626 15.342 71.5626 16.158C71.5626 16.974 71.7966 17.628 72.2646 18.12C72.7326 18.6 73.3266 18.84 74.0466 18.84ZM90.9895 11.316V21H88.3255V19.848C87.9535 20.268 87.5095 20.592 86.9935 20.82C86.4775 21.036 85.9195 21.144 85.3195 21.144C84.0475 21.144 83.0395 20.778 82.2955 20.046C81.5515 19.314 81.1795 18.228 81.1795 16.788V11.316H83.9875V16.374C83.9875 17.934 84.6415 18.714 85.9495 18.714C86.6215 18.714 87.1615 18.498 87.5695 18.066C87.9775 17.622 88.1815 16.968 88.1815 16.104V11.316H90.9895ZM96.2729 12.594C96.6089 12.126 97.0589 11.772 97.6229 11.532C98.1989 11.292 98.8589 11.172 99.6029 11.172V13.764C99.2909 13.74 99.0809 13.728 98.9729 13.728C98.1689 13.728 97.5389 13.956 97.0829 14.412C96.6269 14.856 96.3989 15.528 96.3989 16.428V21H93.5909V11.316H96.2729V12.594ZM101.273 11.316H104.081V21H101.273V11.316ZM102.677 9.966C102.161 9.966 101.741 9.816 101.417 9.516C101.093 9.216 100.931 8.844 100.931 8.4C100.931 7.956 101.093 7.584 101.417 7.284C101.741 6.984 102.161 6.834 102.677 6.834C103.193 6.834 103.613 6.978 103.937 7.266C104.261 7.554 104.423 7.914 104.423 8.346C104.423 8.814 104.261 9.204 103.937 9.516C103.613 9.816 103.193 9.966 102.677 9.966ZM109.945 21.144C109.141 21.144 108.355 21.048 107.587 20.856C106.819 20.652 106.207 20.4 105.751 20.1L106.687 18.084C107.119 18.36 107.641 18.588 108.253 18.768C108.865 18.936 109.465 19.02 110.053 19.02C111.241 19.02 111.835 18.726 111.835 18.138C111.835 17.862 111.673 17.664 111.349 17.544C111.025 17.424 110.527 17.322 109.855 17.238C109.063 17.118 108.409 16.98 107.893 16.824C107.377 16.668 106.927 16.392 106.543 15.996C106.171 15.6 105.985 15.036 105.985 14.304C105.985 13.692 106.159 13.152 106.507 12.684C106.867 12.204 107.383 11.832 108.055 11.568C108.739 11.304 109.543 11.172 110.467 11.172C111.151 11.172 111.829 11.25 112.501 11.406C113.185 11.55 113.749 11.754 114.193 12.018L113.257 14.016C112.405 13.536 111.475 13.296 110.467 13.296C109.867 13.296 109.417 13.38 109.117 13.548C108.817 13.716 108.667 13.932 108.667 14.196C108.667 14.496 108.829 14.706 109.153 14.826C109.477 14.946 109.993 15.06 110.701 15.168C111.493 15.3 112.141 15.444 112.645 15.6C113.149 15.744 113.587 16.014 113.959 16.41C114.331 16.806 114.517 17.358 114.517 18.066C114.517 18.666 114.337 19.2 113.977 19.668C113.617 20.136 113.089 20.502 112.393 20.766C111.709 21.018 110.893 21.144 109.945 21.144ZM122.495 20.532C122.219 20.736 121.877 20.892 121.469 21C121.073 21.096 120.653 21.144 120.209 21.144C119.057 21.144 118.163 20.85 117.527 20.262C116.903 19.674 116.591 18.81 116.591 17.67V13.692H115.097V11.532H116.591V9.174H119.399V11.532H121.811V13.692H119.399V17.634C119.399 18.042 119.501 18.36 119.705 18.588C119.921 18.804 120.221 18.912 120.605 18.912C121.049 18.912 121.427 18.792 121.739 18.552L122.495 20.532ZM134.497 11.532C135.373 11.532 136.165 11.736 136.873 12.144C137.581 12.552 138.133 13.116 138.529 13.836C138.937 14.556 139.141 15.378 139.141 16.302C139.141 17.226 138.937 18.054 138.529 18.786C138.133 19.506 137.581 20.07 136.873 20.478C136.165 20.874 135.373 21.072 134.497 21.072C133.669 21.072 132.919 20.88 132.247 20.496C131.575 20.1 131.053 19.554 130.681 18.858V24.492H129.781V11.604H130.645V13.818C131.017 13.098 131.539 12.54 132.211 12.144C132.895 11.736 133.657 11.532 134.497 11.532ZM134.443 20.262C135.163 20.262 135.811 20.094 136.387 19.758C136.963 19.422 137.413 18.954 137.737 18.354C138.073 17.754 138.241 17.07 138.241 16.302C138.241 15.534 138.073 14.85 137.737 14.25C137.413 13.65 136.963 13.182 136.387 12.846C135.811 12.51 135.163 12.342 134.443 12.342C133.723 12.342 133.075 12.51 132.499 12.846C131.935 13.182 131.485 13.65 131.149 14.25C130.825 14.85 130.663 15.534 130.663 16.302C130.663 17.07 130.825 17.754 131.149 18.354C131.485 18.954 131.935 19.422 132.499 19.758C133.075 20.094 133.723 20.262 134.443 20.262ZM142.792 13.656C143.08 12.972 143.53 12.45 144.142 12.09C144.754 11.718 145.498 11.532 146.374 11.532V12.414L146.158 12.396C145.114 12.396 144.298 12.726 143.71 13.386C143.122 14.034 142.828 14.94 142.828 16.104V21H141.928V11.604H142.792V13.656ZM152.437 21.072C151.549 21.072 150.745 20.868 150.025 20.46C149.317 20.052 148.759 19.488 148.351 18.768C147.943 18.036 147.739 17.214 147.739 16.302C147.739 15.39 147.943 14.574 148.351 13.854C148.759 13.122 149.317 12.552 150.025 12.144C150.745 11.736 151.549 11.532 152.437 11.532C153.325 11.532 154.123 11.736 154.831 12.144C155.551 12.552 156.115 13.122 156.523 13.854C156.931 14.574 157.135 15.39 157.135 16.302C157.135 17.214 156.931 18.036 156.523 18.768C156.115 19.488 155.551 20.052 154.831 20.46C154.123 20.868 153.325 21.072 152.437 21.072ZM152.437 20.262C153.157 20.262 153.799 20.094 154.363 19.758C154.939 19.422 155.389 18.954 155.713 18.354C156.049 17.754 156.217 17.07 156.217 16.302C156.217 15.534 156.049 14.85 155.713 14.25C155.389 13.65 154.939 13.182 154.363 12.846C153.799 12.51 153.157 12.342 152.437 12.342C151.717 12.342 151.069 12.51 150.493 12.846C149.929 13.182 149.479 13.65 149.143 14.25C148.819 14.85 148.657 15.534 148.657 16.302C148.657 17.07 148.819 17.754 149.143 18.354C149.479 18.954 149.929 19.422 150.493 19.758C151.069 20.094 151.717 20.262 152.437 20.262Z" fill="#04C3FF"/>
<path d="M59.416 28.6H60.292V35.56L65.668 28.6H66.472V37H65.596V30.052L60.22 37H59.416V28.6ZM71.7426 37.06C71.1186 37.06 70.5586 36.924 70.0626 36.652C69.5746 36.38 69.1906 36 68.9106 35.512C68.6306 35.016 68.4906 34.46 68.4906 33.844C68.4906 33.228 68.6306 32.676 68.9106 32.188C69.1906 31.7 69.5746 31.32 70.0626 31.048C70.5586 30.776 71.1186 30.64 71.7426 30.64C72.2866 30.64 72.7706 30.748 73.1946 30.964C73.6266 31.172 73.9666 31.48 74.2146 31.888L73.5786 32.32C73.3706 32.008 73.1066 31.776 72.7866 31.624C72.4666 31.464 72.1186 31.384 71.7426 31.384C71.2866 31.384 70.8746 31.488 70.5066 31.696C70.1466 31.896 69.8626 32.184 69.6546 32.56C69.4546 32.936 69.3546 33.364 69.3546 33.844C69.3546 34.332 69.4546 34.764 69.6546 35.14C69.8626 35.508 70.1466 35.796 70.5066 36.004C70.8746 36.204 71.2866 36.304 71.7426 36.304C72.1186 36.304 72.4666 36.228 72.7866 36.076C73.1066 35.924 73.3706 35.692 73.5786 35.38L74.2146 35.812C73.9666 36.22 73.6266 36.532 73.1946 36.748C72.7626 36.956 72.2786 37.06 71.7426 37.06ZM81.5283 30.688V37H80.6763V31.444H76.7163V37H75.8643V30.688H81.5283ZM86.5543 37.06C85.9463 37.06 85.3983 36.924 84.9103 36.652C84.4223 36.372 84.0383 35.988 83.7583 35.5C83.4783 35.012 83.3383 34.46 83.3383 33.844C83.3383 33.228 83.4783 32.676 83.7583 32.188C84.0383 31.7 84.4223 31.32 84.9103 31.048C85.3983 30.776 85.9463 30.64 86.5543 30.64C87.1623 30.64 87.7103 30.776 88.1983 31.048C88.6863 31.32 89.0663 31.7 89.3383 32.188C89.6183 32.676 89.7583 33.228 89.7583 33.844C89.7583 34.46 89.6183 35.012 89.3383 35.5C89.0663 35.988 88.6863 36.372 88.1983 36.652C87.7103 36.924 87.1623 37.06 86.5543 37.06ZM86.5543 36.304C87.0023 36.304 87.4023 36.204 87.7543 36.004C88.1143 35.796 88.3943 35.504 88.5943 35.128C88.7943 34.752 88.8943 34.324 88.8943 33.844C88.8943 33.364 88.7943 32.936 88.5943 32.56C88.3943 32.184 88.1143 31.896 87.7543 31.696C87.4023 31.488 87.0023 31.384 86.5543 31.384C86.1063 31.384 85.7023 31.488 85.3423 31.696C84.9903 31.896 84.7103 32.184 84.5023 32.56C84.3023 32.936 84.2023 33.364 84.2023 33.844C84.2023 34.324 84.3023 34.752 84.5023 35.128C84.7103 35.504 84.9903 35.796 85.3423 36.004C85.7023 36.204 86.1063 36.304 86.5543 36.304ZM96.704 30.688V37H95.852V31.444H92.828L92.744 33.004C92.68 34.316 92.528 35.324 92.288 36.028C92.048 36.732 91.62 37.084 91.004 37.084C90.836 37.084 90.632 37.052 90.392 36.988L90.452 36.256C90.596 36.288 90.696 36.304 90.752 36.304C91.08 36.304 91.328 36.152 91.496 35.848C91.664 35.544 91.776 35.168 91.832 34.72C91.888 34.272 91.936 33.68 91.976 32.944L92.084 30.688H96.704ZM99.1261 30.688H99.9781V33.484H103.95V30.688H104.802V37H103.95V34.216H99.9781V37H99.1261V30.688ZM107.224 30.688H108.076V35.704L112.288 30.688H113.044V37H112.192V31.984L107.992 37H107.224V30.688ZM119.925 31.444H117.537V37H116.685V31.444H114.297V30.688H119.925V31.444ZM123.869 32.92C124.661 32.928 125.261 33.104 125.669 33.448C126.085 33.792 126.293 34.288 126.293 34.936C126.293 35.608 126.069 36.124 125.621 36.484C125.181 36.844 124.541 37.02 123.701 37.012L121.157 37V30.688H122.009V32.896L123.869 32.92ZM123.653 36.364C124.237 36.372 124.677 36.256 124.973 36.016C125.277 35.768 125.429 35.408 125.429 34.936C125.429 34.472 125.281 34.128 124.985 33.904C124.689 33.68 124.245 33.564 123.653 33.556L122.009 33.532V36.34L123.653 36.364ZM138.116 30.688V37H137.336V32.008L134.78 36.232H134.396L131.84 31.996V37H131.06V30.688H131.924L134.6 35.236L137.324 30.688H138.116ZM146.06 34.108H140.78C140.828 34.764 141.08 35.296 141.536 35.704C141.992 36.104 142.568 36.304 143.264 36.304C143.656 36.304 144.016 36.236 144.344 36.1C144.672 35.956 144.956 35.748 145.196 35.476L145.676 36.028C145.396 36.364 145.044 36.62 144.62 36.796C144.204 36.972 143.744 37.06 143.24 37.06C142.592 37.06 142.016 36.924 141.512 36.652C141.016 36.372 140.628 35.988 140.348 35.5C140.068 35.012 139.928 34.46 139.928 33.844C139.928 33.228 140.06 32.676 140.324 32.188C140.596 31.7 140.964 31.32 141.428 31.048C141.9 30.776 142.428 30.64 143.012 30.64C143.596 30.64 144.12 30.776 144.584 31.048C145.048 31.32 145.412 31.7 145.676 32.188C145.94 32.668 146.072 33.22 146.072 33.844L146.06 34.108ZM143.012 31.372C142.404 31.372 141.892 31.568 141.476 31.96C141.068 32.344 140.836 32.848 140.78 33.472H145.256C145.2 32.848 144.964 32.344 144.548 31.96C144.14 31.568 143.628 31.372 143.012 31.372ZM152.722 30.688V37H151.87V34.372C151.142 34.692 150.426 34.852 149.722 34.852C148.962 34.852 148.37 34.68 147.946 34.336C147.522 33.984 147.31 33.46 147.31 32.764V30.688H148.162V32.716C148.162 33.188 148.314 33.548 148.618 33.796C148.922 34.036 149.342 34.156 149.878 34.156C150.47 34.156 151.134 34 151.87 33.688V30.688H152.722ZM159.582 31.444H157.194V37H156.342V31.444H153.954V30.688H159.582V31.444ZM163.466 32.92C164.258 32.928 164.862 33.104 165.278 33.448C165.694 33.792 165.902 34.288 165.902 34.936C165.902 35.608 165.678 36.124 165.23 36.484C164.782 36.844 164.142 37.02 163.31 37.012L160.814 37V30.688H161.666V32.896L163.466 32.92ZM166.958 30.688H167.81V37H166.958V30.688ZM163.262 36.364C163.846 36.372 164.286 36.256 164.582 36.016C164.886 35.768 165.038 35.408 165.038 34.936C165.038 34.472 164.89 34.128 164.594 33.904C164.298 33.68 163.854 33.564 163.262 33.556L161.666 33.532V36.34L163.262 36.364ZM179.04 30.688V37H178.188V31.444H174.228V37H173.376V30.688H179.04ZM184.714 30.64C185.306 30.64 185.842 30.776 186.322 31.048C186.802 31.312 187.178 31.688 187.45 32.176C187.722 32.664 187.858 33.22 187.858 33.844C187.858 34.476 187.722 35.036 187.45 35.524C187.178 36.012 186.802 36.392 186.322 36.664C185.85 36.928 185.314 37.06 184.714 37.06C184.202 37.06 183.738 36.956 183.322 36.748C182.914 36.532 182.578 36.22 182.314 35.812V39.328H181.462V30.688H182.278V31.936C182.534 31.52 182.87 31.2 183.286 30.976C183.71 30.752 184.186 30.64 184.714 30.64ZM184.654 36.304C185.094 36.304 185.494 36.204 185.854 36.004C186.214 35.796 186.494 35.504 186.694 35.128C186.902 34.752 187.006 34.324 187.006 33.844C187.006 33.364 186.902 32.94 186.694 32.572C186.494 32.196 186.214 31.904 185.854 31.696C185.494 31.488 185.094 31.384 184.654 31.384C184.206 31.384 183.802 31.488 183.442 31.696C183.09 31.904 182.81 32.196 182.602 32.572C182.402 32.94 182.302 33.364 182.302 33.844C182.302 34.324 182.402 34.752 182.602 35.128C182.81 35.504 183.09 35.796 183.442 36.004C183.802 36.204 184.206 36.304 184.654 36.304ZM192.293 37.06C191.685 37.06 191.137 36.924 190.649 36.652C190.161 36.372 189.777 35.988 189.497 35.5C189.217 35.012 189.077 34.46 189.077 33.844C189.077 33.228 189.217 32.676 189.497 32.188C189.777 31.7 190.161 31.32 190.649 31.048C191.137 30.776 191.685 30.64 192.293 30.64C192.901 30.64 193.449 30.776 193.937 31.048C194.425 31.32 194.805 31.7 195.077 32.188C195.357 32.676 195.497 33.228 195.497 33.844C195.497 34.46 195.357 35.012 195.077 35.5C194.805 35.988 194.425 36.372 193.937 36.652C193.449 36.924 192.901 37.06 192.293 37.06ZM192.293 36.304C192.741 36.304 193.141 36.204 193.493 36.004C193.853 35.796 194.133 35.504 194.333 35.128C194.533 34.752 194.633 34.324 194.633 33.844C194.633 33.364 194.533 32.936 194.333 32.56C194.133 32.184 193.853 31.896 193.493 31.696C193.141 31.488 192.741 31.384 192.293 31.384C191.845 31.384 191.441 31.488 191.081 31.696C190.729 31.896 190.449 32.184 190.241 32.56C190.041 32.936 189.941 33.364 189.941 33.844C189.941 34.324 190.041 34.752 190.241 35.128C190.449 35.504 190.729 35.796 191.081 36.004C191.441 36.204 191.845 36.304 192.293 36.304ZM199.957 37.06C199.333 37.06 198.773 36.924 198.277 36.652C197.789 36.38 197.405 36 197.125 35.512C196.845 35.016 196.705 34.46 196.705 33.844C196.705 33.228 196.845 32.676 197.125 32.188C197.405 31.7 197.789 31.32 198.277 31.048C198.773 30.776 199.333 30.64 199.957 30.64C200.501 30.64 200.985 30.748 201.409 30.964C201.841 31.172 202.181 31.48 202.429 31.888L201.793 32.32C201.585 32.008 201.321 31.776 201.001 31.624C200.681 31.464 200.333 31.384 199.957 31.384C199.501 31.384 199.089 31.488 198.721 31.696C198.361 31.896 198.077 32.184 197.869 32.56C197.669 32.936 197.569 33.364 197.569 33.844C197.569 34.332 197.669 34.764 197.869 35.14C198.077 35.508 198.361 35.796 198.721 36.004C199.089 36.204 199.501 36.304 199.957 36.304C200.333 36.304 200.681 36.228 201.001 36.076C201.321 35.924 201.585 35.692 201.793 35.38L202.429 35.812C202.181 36.22 201.841 36.532 201.409 36.748C200.977 36.956 200.493 37.06 199.957 37.06ZM208.402 31.444H206.014V37H205.162V31.444H202.774V30.688H208.402V31.444ZM211.945 37.06C211.337 37.06 210.789 36.924 210.301 36.652C209.813 36.372 209.429 35.988 209.149 35.5C208.869 35.012 208.729 34.46 208.729 33.844C208.729 33.228 208.869 32.676 209.149 32.188C209.429 31.7 209.813 31.32 210.301 31.048C210.789 30.776 211.337 30.64 211.945 30.64C212.553 30.64 213.101 30.776 213.589 31.048C214.077 31.32 214.457 31.7 214.729 32.188C215.009 32.676 215.149 33.228 215.149 33.844C215.149 34.46 215.009 35.012 214.729 35.5C214.457 35.988 214.077 36.372 213.589 36.652C213.101 36.924 212.553 37.06 211.945 37.06ZM211.945 36.304C212.393 36.304 212.793 36.204 213.145 36.004C213.505 35.796 213.785 35.504 213.985 35.128C214.185 34.752 214.285 34.324 214.285 33.844C214.285 33.364 214.185 32.936 213.985 32.56C213.785 32.184 213.505 31.896 213.145 31.696C212.793 31.488 212.393 31.384 211.945 31.384C211.497 31.384 211.093 31.488 210.733 31.696C210.381 31.896 210.101 32.184 209.893 32.56C209.693 32.936 209.593 33.364 209.593 33.844C209.593 34.324 209.693 34.752 209.893 35.128C210.101 35.504 210.381 35.796 210.733 36.004C211.093 36.204 211.497 36.304 211.945 36.304ZM216.814 28.6H217.822L217.642 34.48H216.982L216.814 28.6ZM217.318 37.06C217.142 37.06 216.99 37 216.862 36.88C216.742 36.752 216.682 36.604 216.682 36.436C216.682 36.26 216.742 36.116 216.862 36.004C216.982 35.884 217.134 35.824 217.318 35.824C217.494 35.824 217.642 35.884 217.762 36.004C217.882 36.116 217.942 36.26 217.942 36.436C217.942 36.604 217.882 36.752 217.762 36.88C217.642 37 217.494 37.06 217.318 37.06Z" fill="#04C3FF"/>
<circle cx="25.5" cy="25.5" r="25" stroke="#10E2FF"/>
<path d="M38.4736 20.9734C38.4736 13.8084 32.665 8 25.5 8C18.3348 8 12.5264 13.8084 12.5264 20.9734C12.5264 23.8114 13.44 26.4345 14.986 28.5702L14.9827 28.5707L25.5 43L36.0173 28.5707L36.014 28.5702C37.5596 26.4345 38.4736 23.8114 38.4736 20.9734ZM25.5 26.201C22.613 26.201 20.2726 23.8606 20.2726 20.9734C20.2726 18.0863 22.613 15.746 25.5 15.746C28.387 15.746 30.7274 18.0863 30.7274 20.9734C30.7274 23.8606 28.387 26.201 25.5 26.201Z" fill="#10E2FF"/>
</svg>
