<svg width="194" height="194" viewBox="0 0 194 194" fill="none" xmlns="http://www.w3.org/2000/svg">
<path d="M174.008 7.40458H167.355C167.527 6.8596 167.705 6.30278 167.705 5.69856C167.705 2.55902 165.146 0 162 0C158.855 0 156.308 2.55902 156.308 5.69856C156.308 6.3087 156.474 6.8596 156.657 7.40458H134.858C135.03 6.8596 135.208 6.30278 135.208 5.69856C135.208 2.55902 132.649 0 129.503 0C126.364 0 123.805 2.55902 123.805 5.69856C123.805 6.3087 123.976 6.8596 124.16 7.40458H102.355C102.527 6.8596 102.699 6.30278 102.699 5.69856C102.699 2.55902 100.151 0 97.0059 0C93.8605 0 91.3133 2.55902 91.3133 5.69856C91.3133 6.3087 91.4792 6.8596 91.6569 7.40458H69.8519C70.0236 6.8596 70.2014 6.30278 70.2014 5.69856C70.2014 2.55902 67.6483 0 64.5087 0C61.3633 0 58.8102 2.55902 58.8102 5.69856C58.8102 6.3087 58.976 6.8596 59.1537 7.40458H37.3546C37.5324 6.8596 37.7041 6.30278 37.7041 5.69856C37.7041 2.55902 35.157 0 32.0115 0C28.866 0 26.3129 2.55902 26.3129 5.69856C26.3129 6.3087 26.4788 6.8596 26.6565 7.40458H19.9924C11.0003 7.40458 3.7023 14.7144 3.7023 23.6947V177.71C3.7023 186.702 11.0003 194 19.9924 194H155.615L190.298 159.317V23.6947C190.298 14.7144 183 7.40458 174.008 7.40458ZM181.412 155.632L179.57 157.475H165.62C159.092 157.475 153.772 162.806 153.772 169.322V183.272L151.93 185.115H19.9924C15.911 185.115 12.5878 181.791 12.5878 177.71V29.6183H181.412V155.632Z" fill="black"/>
<path d="M37.8167 69.7749H45.7899V63.8631H49.3323V57.6195H45.7899V41.3946H37.9825L24.7372 57.1397V63.8631H37.8167V69.7749ZM31.0518 57.6254L37.8167 48.971V57.6254H31.0518Z" fill="black"/>
<path d="M37.2303 132.323L89.945 108.445C89.945 132.732 89.945 156.586 89.945 156.586L74.111 172.669V175.643L95.5191 168.25L116.921 175.643V172.657L101.099 156.574C101.099 156.574 101.099 132.726 101.099 108.445L153.814 132.317V124.782L140.201 113.243V102.124H134.272V108.202L121.642 97.5035V87.0246H115.701V92.4684L101.099 80.0939C101.099 69.5024 101.099 61.2566 101.099 58.5614C101.099 49.6048 95.5665 41.3413 95.525 41.3887C95.4836 41.3413 89.9509 49.6107 89.9509 58.5614C89.9509 61.2566 89.9509 69.5024 89.9509 80.0939L75.349 92.4684V87.0246H69.4076V97.5035L56.7843 108.202V102.124H50.8488V113.243L37.2362 124.782L37.2303 132.323Z" fill="black"/>
</svg>
